<svg width="26" height="33" viewBox="0 0 26 33" fill="none" xmlns="http://www.w3.org/2000/svg">
<path d="M21 8L16.97 14L13 8H21Z" fill="#0392FF"/>
<path d="M13.335 13.75H9.92775C8.38425 13.75 7.161 13.75 6.20463 13.8795C5.21938 14.0125 4.42225 14.2925 3.794 14.9234C3.16488 15.5543 2.88575 16.3549 2.75363 17.3436C2.625 18.3044 2.625 19.532 2.625 21.0816V26.1899C2.625 27.5094 3.43 28.6399 4.57363 29.1141C4.515 28.3179 4.515 27.2023 4.515 26.273V21.8893C4.515 20.7684 4.515 19.8015 4.61825 19.028C4.72938 18.1985 4.97963 17.404 5.62188 16.7591C6.26413 16.1143 7.056 15.8631 7.882 15.7511C8.652 15.6479 9.6145 15.6479 10.7319 15.6479H13.4181C14.5346 15.6479 15.4954 15.6479 16.2663 15.7511C16.0353 15.1616 15.6322 14.6554 15.1093 14.2984C14.5864 13.9415 13.9681 13.7504 13.335 13.75Z" fill="#0392FF"/>
<path d="M10.8149 17.6621H13.3345C14.5435 17.6621 15.375 17.6638 15.9995 17.748C16.6021 17.8294 16.8991 17.9751 17.106 18.1826C17.313 18.3904 17.4585 18.6896 17.5396 19.2959C17.6234 19.9235 17.6245 20.759 17.6245 21.9727V26.1895C17.6245 27.4031 17.6235 28.2386 17.5396 28.8662C17.4685 29.3971 17.3479 29.6927 17.1802 29.8975L17.106 29.9795C16.8991 30.187 16.602 30.3327 15.9995 30.4141C15.375 30.4983 14.5434 30.5 13.3345 30.5H10.8149C9.60584 30.5 8.77428 30.4984 8.1499 30.4141C7.5477 30.3327 7.25166 30.1867 7.04541 29.9795H7.04443C6.8373 29.7716 6.69207 29.4724 6.61084 28.8662C6.52675 28.2386 6.5249 27.4032 6.5249 26.1895V21.9727C6.5249 20.7589 6.52676 19.9235 6.61084 19.2959C6.69206 18.6898 6.83733 18.3905 7.04443 18.1826H7.04541C7.25175 17.9753 7.54765 17.8294 8.1499 17.748C8.61811 17.6848 9.20274 17.6685 9.97607 17.6641L10.8149 17.6621Z" stroke="#0392FF" stroke-width="1.5"/>
<path d="M12.5416 21.7913H10.7916V23.5413H10.2083V21.7913H8.45825V21.208H10.2083V19.458H10.7916V21.208H12.5416V21.7913Z" fill="#0392FF"/>
</svg>
