<svg width="28" height="32" viewBox="0 0 28 32" fill="none" xmlns="http://www.w3.org/2000/svg">
<path d="M23 12L18.97 6L15 12H23Z" fill="#FF9022"/>
<path d="M13.335 12.75H9.92775C8.38425 12.75 7.161 12.75 6.20463 12.8795C5.21938 13.0125 4.42225 13.2925 3.794 13.9234C3.16488 14.5543 2.88575 15.3549 2.75363 16.3436C2.625 17.3044 2.625 18.532 2.625 20.0816V25.1899C2.625 26.5094 3.43 27.6399 4.57363 28.1141C4.515 27.3179 4.515 26.2023 4.515 25.273V20.8893C4.515 19.7684 4.515 18.8015 4.61825 18.028C4.72938 17.1985 4.97963 16.404 5.62188 15.7591C6.26413 15.1143 7.056 14.8631 7.882 14.7511C8.652 14.6479 9.6145 14.6479 10.7319 14.6479H13.4181C14.5346 14.6479 15.4954 14.6479 16.2663 14.7511C16.0353 14.1616 15.6322 13.6554 15.1093 13.2984C14.5864 12.9415 13.9681 12.7504 13.335 12.75Z" fill="#FF9022"/>
<path d="M10.8149 16.6621H13.3345C14.5435 16.6621 15.375 16.6638 15.9995 16.748C16.6021 16.8294 16.8991 16.9751 17.106 17.1826C17.313 17.3904 17.4585 17.6896 17.5396 18.2959C17.6234 18.9235 17.6245 19.759 17.6245 20.9727V25.1895C17.6245 26.4031 17.6235 27.2386 17.5396 27.8662C17.4685 28.3971 17.3479 28.6927 17.1802 28.8975L17.106 28.9795C16.8991 29.187 16.602 29.3327 15.9995 29.4141C15.375 29.4983 14.5434 29.5 13.3345 29.5H10.8149C9.60584 29.5 8.77428 29.4984 8.1499 29.4141C7.5477 29.3327 7.25166 29.1867 7.04541 28.9795H7.04443C6.8373 28.7716 6.69207 28.4724 6.61084 27.8662C6.52675 27.2386 6.5249 26.4032 6.5249 25.1895V20.9727C6.5249 19.7589 6.52676 18.9235 6.61084 18.2959C6.69206 17.6898 6.83733 17.3905 7.04443 17.1826H7.04541C7.25175 16.9753 7.54765 16.8294 8.1499 16.748C8.61811 16.6848 9.20274 16.6685 9.97607 16.6641L10.8149 16.6621Z" stroke="#FF9022" stroke-width="1.5"/>
<path d="M12.5416 20.7913H10.7916V22.5413H10.2083V20.7913H8.45825V20.208H10.2083V18.458H10.7916V20.208H12.5416V20.7913Z" fill="#FF9022"/>
</svg>
